<mxfile host="app.diagrams.net" agent="Mozilla/5.0 (Windows NT 10.0; Win64; x64; rv:138.0) Gecko/20100101 Firefox/138.0" version="27.0.8">
  <diagram name="Page-1" id="Srr2aSu1ip6C1k3x-1ve">
    <mxGraphModel dx="1042" dy="659" grid="1" gridSize="10" guides="1" tooltips="1" connect="1" arrows="1" fold="1" page="1" pageScale="1" pageWidth="850" pageHeight="1100" math="0" shadow="0">
      <root>
        <mxCell id="0" />
        <mxCell id="1" parent="0" />
        <mxCell id="xFCjHgI4DCcMz3GCmU6Y-1" value="" style="rounded=0;whiteSpace=wrap;html=1;" vertex="1" parent="1">
          <mxGeometry x="205" y="140" width="550" height="390" as="geometry" />
        </mxCell>
        <mxCell id="xFCjHgI4DCcMz3GCmU6Y-2" value="Mediensammlung" style="rounded=0;whiteSpace=wrap;html=1;" vertex="1" parent="1">
          <mxGeometry x="340" y="160" width="280" height="40" as="geometry" />
        </mxCell>
        <mxCell id="xFCjHgI4DCcMz3GCmU6Y-3" value="" style="whiteSpace=wrap;html=1;aspect=fixed;" vertex="1" parent="1">
          <mxGeometry x="270" y="230" width="120" height="120" as="geometry" />
        </mxCell>
        <mxCell id="xFCjHgI4DCcMz3GCmU6Y-4" value="&lt;div&gt;Titel&lt;/div&gt;&lt;div&gt;Erscheinungsjahr&lt;/div&gt;" style="rounded=0;whiteSpace=wrap;html=1;" vertex="1" parent="1">
          <mxGeometry x="270" y="320" width="120" height="30" as="geometry" />
        </mxCell>
        <mxCell id="xFCjHgI4DCcMz3GCmU6Y-5" value="" style="whiteSpace=wrap;html=1;aspect=fixed;" vertex="1" parent="1">
          <mxGeometry x="425" y="230" width="120" height="120" as="geometry" />
        </mxCell>
        <mxCell id="xFCjHgI4DCcMz3GCmU6Y-6" value="" style="whiteSpace=wrap;html=1;aspect=fixed;" vertex="1" parent="1">
          <mxGeometry x="570" y="230" width="120" height="120" as="geometry" />
        </mxCell>
        <mxCell id="xFCjHgI4DCcMz3GCmU6Y-7" value="&lt;div&gt;Titel&lt;/div&gt;&lt;div&gt;Erscheinungsjahr&lt;/div&gt;" style="rounded=0;whiteSpace=wrap;html=1;" vertex="1" parent="1">
          <mxGeometry x="425" y="320" width="120" height="30" as="geometry" />
        </mxCell>
        <mxCell id="xFCjHgI4DCcMz3GCmU6Y-8" value="&lt;div&gt;Titel&lt;/div&gt;&lt;div&gt;Erscheinungsjahr&lt;/div&gt;" style="rounded=0;whiteSpace=wrap;html=1;" vertex="1" parent="1">
          <mxGeometry x="570" y="320" width="120" height="30" as="geometry" />
        </mxCell>
        <mxCell id="xFCjHgI4DCcMz3GCmU6Y-9" value="" style="whiteSpace=wrap;html=1;aspect=fixed;" vertex="1" parent="1">
          <mxGeometry x="270" y="380" width="120" height="120" as="geometry" />
        </mxCell>
        <mxCell id="xFCjHgI4DCcMz3GCmU6Y-10" value="" style="whiteSpace=wrap;html=1;aspect=fixed;" vertex="1" parent="1">
          <mxGeometry x="425" y="380" width="120" height="120" as="geometry" />
        </mxCell>
        <mxCell id="xFCjHgI4DCcMz3GCmU6Y-11" value="" style="whiteSpace=wrap;html=1;aspect=fixed;" vertex="1" parent="1">
          <mxGeometry x="570" y="380" width="120" height="120" as="geometry" />
        </mxCell>
        <mxCell id="xFCjHgI4DCcMz3GCmU6Y-12" value="&lt;div&gt;Titel&lt;/div&gt;&lt;div&gt;Erscheinungsjahr&lt;/div&gt;" style="rounded=0;whiteSpace=wrap;html=1;" vertex="1" parent="1">
          <mxGeometry x="270" y="470" width="120" height="30" as="geometry" />
        </mxCell>
        <mxCell id="xFCjHgI4DCcMz3GCmU6Y-13" value="&lt;div&gt;Titel&lt;/div&gt;&lt;div&gt;Erscheinungsjahr&lt;/div&gt;" style="rounded=0;whiteSpace=wrap;html=1;" vertex="1" parent="1">
          <mxGeometry x="425" y="470" width="120" height="30" as="geometry" />
        </mxCell>
        <mxCell id="xFCjHgI4DCcMz3GCmU6Y-14" value="&lt;div&gt;Titel&lt;/div&gt;&lt;div&gt;Erscheinungsjahr&lt;/div&gt;" style="rounded=0;whiteSpace=wrap;html=1;" vertex="1" parent="1">
          <mxGeometry x="570" y="470" width="120" height="30" as="geometry" />
        </mxCell>
        <mxCell id="xFCjHgI4DCcMz3GCmU6Y-15" value="Wireframe" style="text;html=1;align=center;verticalAlign=middle;whiteSpace=wrap;rounded=0;" vertex="1" parent="1">
          <mxGeometry x="440" y="100" width="60" height="30" as="geometry" />
        </mxCell>
      </root>
    </mxGraphModel>
  </diagram>
</mxfile>
